<?xml version="1.0" encoding="UTF-8"?>
<!DOCTYPE svg PUBLIC "-//W3C//DTD SVG 1.1//EN" "http://www.w3.org/Graphics/SVG/1.1/DTD/svg11.dtd">
<svg xmlns="http://www.w3.org/2000/svg" xmlns:xlink="http://www.w3.org/1999/xlink" version="1.1" width="1113px" height="445px" viewBox="-0.5 -0.5 1113 445"><defs><style type="text/css">@import url(https://fonts.googleapis.com/css?family=Caveat);&#xa;</style></defs><g><rect x="0" y="0" width="1110" height="330" fill="none" stroke="none" pointer-events="all"/><g fill="#E6E6E6" font-family="Caveat" text-anchor="middle" font-size="240px"><text x="554.5" y="281.5">menckenania</text></g><ellipse cx="262.5" cy="97.5" rx="37.5" ry="37.5" fill="none" stroke="none" transform="rotate(10,262.5,97.5)" pointer-events="all"/><path d="M 240.33 60.47 C 240.33 60.47 240.33 60.47 240.33 60.47 M 240.33 60.47 C 240.33 60.47 240.33 60.47 240.33 60.47 M 235.02 75.73 C 243.52 66.65 241.97 68.25 248.8 59.88 M 235.02 75.73 C 239.44 73.51 239.32 69.98 248.8 59.88 M 231.68 88.72 C 242.6 78.95 236.65 70.92 259.23 57.02 M 231.68 88.72 C 242.6 83.85 244.24 75.66 259.23 57.02 M 230.3 99.45 C 235.74 78.63 251.95 73.6 267.7 56.43 M 230.3 99.45 C 246.51 81.83 262.33 63.03 267.7 56.43 M 228.92 110.18 C 239.26 106.43 236.49 85.85 272.22 60.37 M 228.92 110.18 C 245.85 89.29 257.84 79.89 272.22 60.37 M 233.45 114.12 C 260.04 103.23 269.09 68.02 276.75 64.31 M 233.45 114.12 C 243.66 95.97 265.83 81.68 276.75 64.31 M 236.01 120.32 C 240.53 112.02 256.46 89.83 281.28 68.24 M 236.01 120.32 C 248.44 106.41 262.88 92.67 281.28 68.24 M 240.54 124.25 C 248.75 123.96 265.21 87.71 285.81 72.18 M 240.54 124.25 C 253.89 102.95 271.8 84.12 285.81 72.18 M 243.1 130.45 C 254.83 120.87 271.85 108.23 290.34 76.11 M 243.1 130.45 C 255.42 122.37 264.17 112.16 290.34 76.11 M 247.63 134.39 C 256.26 126.34 283.67 98.65 296.83 77.79 M 247.63 134.39 C 264.16 108.43 289.46 92.12 296.83 77.79 M 256.09 133.8 C 268.58 125.86 290.04 106.71 297.43 86.25 M 256.09 133.8 C 272.32 117.91 290.86 96.52 297.43 86.25 M 264.56 133.21 C 265.71 132.63 290.48 113.34 299.99 92.45 M 264.56 133.21 C 275.34 127.4 277.52 119.75 299.99 92.45 M 273.02 132.61 C 280.99 130.15 284.56 116.36 300.58 100.92 M 273.02 132.61 C 282.01 127.19 290.33 120.17 300.58 100.92 M 285.42 127.49 C 290.93 126.65 293.21 122.72 295.27 116.17 M 285.42 127.49 C 289.32 124.95 289.9 121.5 295.27 116.17" fill="none" stroke="#e6e6e6" stroke-width="0.75" stroke-linejoin="round" stroke-linecap="round" stroke-miterlimit="10" transform="rotate(10,262.5,97.5)" pointer-events="all"/><path d="M 444 264 Q 444 264 515.65 352.51" fill="none" stroke="none" pointer-events="stroke"/><path d="M 444 264 M 444 264 C 452.14 257.4 465.2 295.41 515.64 352.5 M 444 264 C 445.76 267.16 460.15 292.64 515.64 352.5" fill="none" stroke="#e6e6e6" stroke-width="1.5" stroke-linejoin="round" stroke-linecap="round" stroke-miterlimit="10" stroke-dasharray="4.5 4.5" pointer-events="stroke"/><ellipse cx="547.51" cy="367.5" rx="37.5" ry="37.5" fill="none" stroke="none" transform="rotate(10,547.51,367.5)" pointer-events="all"/><path d="M 514.54 342.56 C 514.54 342.56 514.54 342.56 514.54 342.56 M 514.54 342.56 C 514.54 342.56 514.54 342.56 514.54 342.56 M 513.16 353.29 C 519.85 346.29 519.55 340.32 526.94 337.44 M 513.16 353.29 C 518.7 348.34 518.88 343.45 526.94 337.44 M 511.79 364.02 C 512.18 351.96 522.85 348.31 535.4 336.85 M 511.79 364.02 C 523.32 351.68 527.28 341.27 535.4 336.85 M 512.38 372.48 C 531.19 368.8 543.75 339.21 545.84 333.99 M 512.38 372.48 C 525.19 365.91 530.5 352.4 545.84 333.99 M 514.94 378.68 C 515.88 363.62 547.95 344.74 554.3 333.4 M 514.94 378.68 C 524.34 368.03 529.81 356.29 554.3 333.4 M 519.47 382.62 C 537.79 370.96 543.4 348.69 562.77 332.81 M 519.47 382.62 C 536.19 365.64 540.34 350.57 562.77 332.81 M 523.99 386.55 C 548.48 379.55 549.77 346.37 567.29 336.74 M 523.99 386.55 C 531.69 377.12 545.56 370.59 567.29 336.74 M 528.52 390.49 C 537.13 375.85 553.59 367.71 571.82 340.68 M 528.52 390.49 C 547.09 376.33 555.37 355.33 571.82 340.68 M 533.05 394.43 C 551.94 375.68 560.07 378.91 574.38 346.88 M 533.05 394.43 C 542.8 384.07 564.63 360.43 574.38 346.88 M 537.58 398.36 C 555.89 386.29 562.96 374.76 578.91 350.82 M 537.58 398.36 C 551.45 383.42 555.77 370.22 578.91 350.82 M 544.07 400.04 C 560.43 393.05 566.58 376.28 583.44 354.75 M 544.07 400.04 C 558.94 380.16 571.34 364.12 583.44 354.75 M 548.6 403.97 C 567.46 390.4 564.17 380.47 584.03 363.22 M 548.6 403.97 C 555.87 390.7 572.17 377.43 584.03 363.22 M 555.1 405.64 C 566.67 400.69 570.32 388.97 584.62 371.68 M 555.1 405.64 C 567.25 391.1 578.67 383.74 584.62 371.68 M 563.56 405.05 C 568.54 396.11 581.53 391.33 583.25 382.41 M 563.56 405.05 C 567.66 396.73 578.09 388.68 583.25 382.41" fill="none" stroke="#e6e6e6" stroke-width="0.75" stroke-linejoin="round" stroke-linecap="round" stroke-miterlimit="10" transform="rotate(10,547.51,367.5)" pointer-events="all"/><ellipse cx="262.51" cy="367.5" rx="37.5" ry="37.5" fill="none" stroke="none" transform="rotate(10,262.51,367.5)" pointer-events="all"/><path d="M 235.5 334.52 C 235.5 334.52 235.5 334.52 235.5 334.52 M 235.5 334.52 C 235.5 334.52 235.5 334.52 235.5 334.52 M 230.77 358.24 C 233.46 350.59 253.39 342.22 254.39 331.07 M 230.77 358.24 C 236 350.47 248.69 338.53 254.39 331.07 M 228.02 379.7 C 250.6 367.87 253.92 346.68 271.32 329.89 M 228.02 379.7 C 231.2 367.96 240.61 359.24 271.32 329.89 M 231.17 394.36 C 253.9 372.32 258.46 367.6 280.38 337.76 M 231.17 394.36 C 240.87 380.36 250.91 369.78 280.38 337.76 M 240.23 402.24 C 250.94 386.95 286.37 348.69 289.44 345.63 M 240.23 402.24 C 261.79 376.3 273.2 363.38 289.44 345.63 M 249.29 410.11 C 263.05 405.29 276.15 367.65 298.49 353.51 M 249.29 410.11 C 262.72 389.44 278.42 374.15 298.49 353.51 M 270.15 404.4 C 285.98 395.75 292.19 373.45 299.68 370.43 M 270.15 404.4 C 277.52 399.33 280.89 391.27 299.68 370.43" fill="none" stroke="#e6e6e6" stroke-width="1.5" stroke-linejoin="round" stroke-linecap="round" stroke-miterlimit="10" transform="rotate(10,262.51,367.5)" pointer-events="all"/><path d="M 269.49 330.18 C 277.9 331.35 285.24 339.65 290.29 346.08 C 295.33 352.51 298.83 361.2 299.76 368.76 C 300.69 376.32 299.86 386.55 295.86 391.43 C 291.86 396.3 284.22 395.56 275.74 398.02 C 267.26 400.47 253.68 407.82 244.98 406.15 C 236.29 404.49 226.6 396.45 223.58 388.02 C 220.56 379.59 224.81 364.55 226.85 355.57 C 228.89 346.59 225.79 336.48 235.83 334.14 C 245.87 331.8 276.56 338.67 287.08 341.53 C 297.61 344.4 299.02 351.17 299 351.33 M 254.51 322.71 C 261.29 320.77 274.75 328.44 280.95 333.43 C 287.14 338.41 288.84 344.88 291.68 352.63 C 294.53 360.37 299.71 371.57 298.03 379.91 C 296.35 388.25 289.44 399.41 281.6 402.66 C 273.76 405.91 257.82 400.5 250.98 399.41 C 244.14 398.31 246.16 400.13 240.56 396.07 C 234.97 392.01 217.43 383.99 217.42 375.06 C 217.4 366.14 232.95 348.55 240.45 342.53 C 247.96 336.51 260.43 339.47 262.45 338.95 C 264.47 338.42 254.39 340.72 252.57 339.38" fill="none" stroke="#e6e6e6" stroke-width="3" stroke-linejoin="round" stroke-linecap="round" stroke-miterlimit="10" transform="rotate(10,262.51,367.5)" pointer-events="all"/><ellipse cx="472.51" cy="97.5" rx="37.5" ry="37.5" fill="none" stroke="none" transform="rotate(10,472.51,97.5)" pointer-events="all"/><path d="M 452.99 64.88 C 460.14 61.88 478.5 60.7 487 62.14 C 495.49 63.58 500.36 66.34 503.95 73.54 C 507.53 80.73 509.53 96.46 508.49 105.3 C 507.45 114.14 503.62 121.88 497.68 126.57 C 491.74 131.26 480.18 134.07 472.87 133.45 C 465.56 132.84 459.98 127.49 453.82 122.89 C 447.66 118.28 438.71 111.87 435.93 105.82 C 433.15 99.77 432.52 93.14 437.14 86.58 C 441.77 80.01 458.31 71.62 463.66 66.46 C 469.01 61.29 468.6 55.29 469.24 55.6 M 447.82 60.72 C 454.68 55.97 463.95 59.53 473.78 61.79 C 483.6 64.04 500.41 69.59 506.77 74.27 C 513.13 78.95 513.95 82.39 511.93 89.87 C 509.91 97.35 501.04 110.76 494.68 119.16 C 488.32 127.56 479.63 138.69 473.76 140.29 C 467.9 141.89 465.46 133.51 459.48 128.76 C 453.5 124.02 441.92 119.28 437.89 111.82 C 433.86 104.37 433.35 90.58 435.3 84.04 C 437.26 77.49 445.59 74.64 449.61 72.54 C 453.64 70.44 457.89 71.07 459.44 71.46" fill="none" stroke="#e6e6e6" stroke-width="3" stroke-linejoin="round" stroke-linecap="round" stroke-miterlimit="10" transform="rotate(10,472.51,97.5)" pointer-events="all"/><path d="M 444 198 L 456.41 125.28" fill="none" stroke="none" pointer-events="stroke"/><path d="M 444 198 M 444 198 C 450.19 166.84 449.86 141.31 456.42 125.28 M 444 198 C 447.1 170.04 449.62 156.89 456.42 125.28" fill="none" stroke="#f5f5f5" stroke-width="1.5" stroke-linejoin="round" stroke-linecap="round" stroke-miterlimit="10" pointer-events="stroke"/><path d="M 389.02 360.57 L 421.8 273.9" fill="none" stroke="none" pointer-events="stroke"/><path d="M 389.01 360.57 M 389.01 360.57 C 395.49 317.49 419.59 288.03 421.8 273.9 M 389.01 360.57 C 407.93 323.91 416.56 295.51 421.8 273.9" fill="none" stroke="#e6e6e6" stroke-width="1.5" stroke-linejoin="round" stroke-linecap="round" stroke-miterlimit="10" pointer-events="stroke"/><path d="M 291.09 121.77 Q 291.09 121.77 399.6 214.5" fill="none" stroke="none" pointer-events="stroke"/><path d="M 291.09 121.77 M 291.09 121.77 C 299.25 128.39 325.54 140.89 399.6 214.5 M 291.09 121.77 C 299.17 113.94 339.51 146.28 399.6 214.5" fill="none" stroke="#e6e6e6" stroke-width="1.5" stroke-linejoin="round" stroke-linecap="round" stroke-miterlimit="10" stroke-dasharray="4.5 4.5" pointer-events="stroke"/><path d="M 293.22 345.99 L 388.5 257.4" fill="none" stroke="none" pointer-events="stroke"/><path d="M 293.22 345.99 M 293.22 345.99 C 332.36 316 365.34 288.21 388.5 257.4 M 293.22 345.99 C 320.55 314.53 354.6 292.98 388.5 257.4" fill="none" stroke="#f5f5f5" stroke-width="1.5" stroke-linejoin="round" stroke-linecap="round" stroke-miterlimit="10" stroke-dasharray="4.5 4.5" pointer-events="stroke"/><ellipse cx="382.51" cy="397.5" rx="37.5" ry="37.5" fill="none" stroke="none" transform="rotate(10,382.51,397.5)" pointer-events="all"/><path d="M 352.89 378.38 C 357.03 370.22 361.52 359.81 369.41 357.77 C 377.3 355.74 393.24 363.04 400.22 366.17 C 407.2 369.3 407.26 369.88 411.3 376.57 C 415.34 383.27 426.42 396.94 424.48 406.34 C 422.54 415.75 407.48 428.78 399.65 432.98 C 391.82 437.18 385.02 433.17 377.49 431.55 C 369.95 429.93 359.44 428.38 354.44 423.28 C 349.44 418.17 341.4 410.34 347.48 400.94 C 353.57 391.54 379.56 367.46 390.95 366.88 C 402.33 366.31 415.33 397.11 415.79 397.48 M 360.91 371.69 C 367.27 367.53 377.35 364.14 384.08 363.55 C 390.8 362.97 394.87 364.13 401.25 368.18 C 407.64 372.24 418.74 382.02 422.38 387.9 C 426.01 393.79 427.48 396.51 423.06 403.49 C 418.65 410.47 403.05 425.62 395.88 429.78 C 388.72 433.94 385.78 430.5 380.07 428.43 C 374.35 426.35 366.37 422.63 361.59 417.33 C 356.82 412.04 352.26 403.04 351.42 396.66 C 350.58 390.29 356.78 382.47 356.55 379.09 C 356.33 375.72 351.16 377.37 350.06 376.43" fill="none" stroke="#e6e6e6" stroke-width="3" stroke-linejoin="round" stroke-linecap="round" stroke-miterlimit="10" transform="rotate(10,382.51,397.5)" pointer-events="all"/></g></svg>