<?xml version="1.0" encoding="UTF-8"?>
<!DOCTYPE svg PUBLIC "-//W3C//DTD SVG 1.1//EN" "http://www.w3.org/Graphics/SVG/1.1/DTD/svg11.dtd">
<svg xmlns="http://www.w3.org/2000/svg" xmlns:xlink="http://www.w3.org/1999/xlink" version="1.1" width="425px" height="126px" viewBox="-0.5 -0.5 425 126"><defs><style type="text/css">@import url(https://fonts.googleapis.com/css?family=Caveat);&#xa;</style></defs><g><rect x="0" y="0" width="370" height="110" fill="none" stroke="none" pointer-events="all"/><g fill="#FFFFFF" font-family="Caveat" font-size="80px"><text x="1.5" y="93.5">menckenania</text></g><ellipse cx="66" cy="77.4" rx="20" ry="20" fill="none" stroke="none" transform="rotate(10,66,77.4)" pointer-events="all"/><path d="M 54.58 58.73 C 54.58 58.73 54.58 58.73 54.58 58.73 M 54.58 58.73 C 54.58 58.73 54.58 58.73 54.58 58.73 M 48.41 71.92 C 56.1 63.7 54.7 65.15 60.88 57.58 M 48.41 71.92 C 52.41 69.91 52.3 66.71 60.88 57.58 M 51.43 74.54 C 57.27 69.23 55.02 64.73 67.18 56.43 M 51.43 74.54 C 57.39 71.43 58.86 66.73 67.18 56.43 M 47.89 84.71 C 52.75 73.95 61.32 68.86 70.85 58.3 M 47.89 84.71 C 57.6 74.07 67.04 63 70.85 58.3 M 50.25 88.09 C 55.79 84.55 56.79 75.48 73.87 60.92 M 50.25 88.09 C 58.78 77.93 65.54 71.62 73.87 60.92 M 53.27 90.71 C 65.72 83.03 72.41 67.07 77.54 62.79 M 53.27 90.71 C 59.94 80.83 70.55 72.36 77.54 62.79 M 55.63 94.09 C 59.95 87.84 68.17 77.1 80.56 65.41 M 55.63 94.09 C 62.03 86.73 69.28 79.35 80.56 65.41 M 58 97.47 C 63.5 94.35 71.77 79.05 84.24 67.28 M 58 97.47 C 66.1 85.83 75.93 75.12 84.24 67.28 M 63.64 97.08 C 69.14 92.09 76.27 86.2 85.29 72.17 M 63.64 97.08 C 68.98 93.12 73.08 88.35 85.29 72.17 M 68.63 97.44 C 72.11 94.07 81.83 84.17 87 76.31 M 68.63 97.44 C 74.88 87.95 84.04 81.67 87 76.31 M 72.96 98.55 C 77.81 95.03 85.7 87.81 88.7 80.44 M 72.96 98.55 C 79.13 92.41 86.07 84.41 88.7 80.44" fill="none" stroke="#e6e6e6" stroke-width="0.5" stroke-linejoin="round" stroke-linecap="round" stroke-miterlimit="10" transform="rotate(10,66,77.4)" pointer-events="all"/><path d="M 54.58 58.72 C 58.09 56.18 64.07 55.21 68.67 56.37 C 73.27 57.53 79.31 62 82.17 65.66 C 85.02 69.32 85.77 74.31 85.79 78.32 C 85.81 82.32 84.85 86.8 82.27 89.68 C 79.69 92.56 74.61 94.62 70.31 95.6 C 66.02 96.57 60.28 97.41 56.5 95.53 C 52.72 93.65 48.96 88.24 47.62 84.31 C 46.28 80.39 46.31 76.5 48.48 71.98 C 50.65 67.46 57.31 59.6 60.62 57.19 C 63.93 54.78 68.35 57.34 68.36 57.53 M 52.99 62.87 C 56.25 61.16 63.19 59.68 68.02 60.29 C 72.84 60.9 78.8 63.64 81.96 66.53 C 85.12 69.41 86.81 73.72 86.98 77.61 C 87.15 81.51 85.31 87 82.99 89.91 C 80.66 92.82 77.92 94.03 73.03 95.07 C 68.14 96.12 57.72 98.11 53.66 96.17 C 49.61 94.23 49.39 87.61 48.68 83.42 C 47.98 79.24 48.36 74.42 49.43 71.05 C 50.5 67.69 53.89 64.83 55.1 63.25 C 56.31 61.67 56.43 61.93 56.7 61.56" fill="none" stroke="#e6e6e6" stroke-linejoin="round" stroke-linecap="round" stroke-miterlimit="10" transform="rotate(10,66,77.4)" pointer-events="all"/><path d="M 77.47 93.78 Q 185 120 246.95 100.83" fill="none" stroke="none" pointer-events="stroke"/><path d="M 77.47 93.78 M 77.47 93.78 C 151.87 109.06 204.76 114.25 246.95 100.83 M 77.47 93.78 C 149.74 112.31 203.07 113.32 246.95 100.83" fill="none" stroke="#e6e6e6" stroke-width="0.5" stroke-linejoin="round" stroke-linecap="round" stroke-miterlimit="10" stroke-dasharray="1.5 1.5" pointer-events="stroke"/><ellipse cx="250.64" cy="79.9" rx="21.25" ry="21.25" fill="none" stroke="none" transform="rotate(10,250.64,79.9)" pointer-events="all"/><path d="M 232.59 66.39 C 232.59 66.39 232.59 66.39 232.59 66.39 M 232.59 66.39 C 232.59 66.39 232.59 66.39 232.59 66.39 M 231.02 74.3 C 236.43 68.63 236.18 63.8 242.17 61.47 M 231.02 74.3 C 235.5 70.29 235.65 66.33 242.17 61.47 M 230.1 81.45 C 231.17 73.69 237.97 70.65 246.5 62.58 M 230.1 81.45 C 237.82 73.1 241.31 65.82 246.5 62.58 M 232.46 84.83 C 242.33 80.69 249.6 66.38 252.14 62.19 M 232.46 84.83 C 239.02 80.38 242.68 73.26 252.14 62.19 M 234.82 88.21 C 238.35 79.16 252.42 68.98 257.79 61.79 M 234.82 88.21 C 240.45 81.47 244.91 74.53 257.79 61.79 M 236.53 92.34 C 246.58 83.48 252.58 71.3 262.77 62.15 M 236.53 92.34 C 245.08 82.99 249.54 74.42 262.77 62.15 M 239.55 94.97 C 251.43 88.66 255.34 73.59 265.14 65.53 M 239.55 94.97 C 244.36 89.35 251.3 84.52 265.14 65.53 M 243.22 96.84 C 248.31 89.6 255.81 84.58 267.5 68.91 M 243.22 96.84 C 253.02 88 259.36 76.89 267.5 68.91 M 246.9 98.71 C 255.71 89.45 260.91 87.66 269.86 72.29 M 246.9 98.71 C 253.03 91.82 263.28 80.52 269.86 72.29 M 249.92 101.33 C 257.82 95.28 261.91 89.45 270.26 77.93 M 249.92 101.33 C 256.31 94.14 259.64 87.57 270.26 77.93 M 255.56 100.94 C 261.57 98.01 264.14 91.82 270.65 83.58 M 255.56 100.94 C 261.17 93.56 265.96 87.46 270.65 83.58" fill="none" stroke="#e6e6e6" stroke-width="0.5" stroke-linejoin="round" stroke-linecap="round" stroke-miterlimit="10" transform="rotate(10,250.64,79.9)" pointer-events="all"/><path d="M 232.64 66.34 C 234.83 62.76 239.98 61.38 244.5 60.31 C 249.02 59.25 255.62 58.06 259.75 59.95 C 263.88 61.84 267.46 67.16 269.26 71.65 C 271.07 76.14 271.84 82.35 270.59 86.9 C 269.34 91.45 265.36 96.7 261.74 98.96 C 258.13 101.22 253.17 101.58 248.91 100.47 C 244.64 99.36 239.31 95.28 236.14 92.31 C 232.96 89.33 229.75 86.93 229.85 82.63 C 229.95 78.34 235.87 69.42 236.71 66.52 C 237.56 63.63 234.64 65.17 234.94 65.26 M 256.75 60.86 C 260.97 61.77 265.16 64.6 268.09 68.33 C 271.01 72.07 275.28 78.51 274.3 83.27 C 273.32 88.04 266.7 94.09 262.18 96.93 C 257.66 99.78 250.99 100.08 247.16 100.34 C 243.34 100.61 241.84 101.76 239.22 98.51 C 236.6 95.26 232.88 86.03 231.43 80.86 C 229.99 75.69 228.95 71.33 230.57 67.5 C 232.18 63.68 236.63 59.63 241.12 57.91 C 245.61 56.2 254.52 57.13 257.49 57.22 C 260.47 57.32 258.9 57.99 258.99 58.48" fill="none" stroke="#e6e6e6" stroke-linejoin="round" stroke-linecap="round" stroke-miterlimit="10" transform="rotate(10,250.64,79.9)" pointer-events="all"/><ellipse cx="318" cy="54.5" rx="10" ry="10" fill="none" stroke="none" transform="rotate(10,318,54.5)" pointer-events="all"/><path d="M 312.61 45.86 C 314.55 45.12 319.94 44.79 322.25 45.14 C 324.56 45.5 325.6 46.03 326.47 48 C 327.35 49.97 327.82 54.54 327.5 56.95 C 327.19 59.36 326.19 61.29 324.58 62.47 C 322.97 63.64 319.75 64.27 317.84 64 C 315.94 63.74 314.76 62.12 313.15 60.88 C 311.55 59.64 308.98 58.07 308.21 56.56 C 307.43 55.06 307.26 53.52 308.51 51.85 C 309.76 50.19 314.29 48.04 315.72 46.56 C 317.15 45.08 316.89 42.91 317.1 42.98 M 311.06 44.38 C 312.93 43.09 315.29 44.4 318.04 45.06 C 320.78 45.73 325.77 47.24 327.54 48.4 C 329.31 49.56 329.33 50.05 328.64 52 C 327.96 53.96 325.23 57.77 323.45 60.15 C 321.66 62.53 319.37 65.88 317.94 66.31 C 316.51 66.74 316.39 64.05 314.87 62.73 C 313.34 61.41 309.95 60.36 308.8 58.37 C 307.65 56.39 307.49 52.5 307.97 50.82 C 308.44 49.15 310.5 48.81 311.66 48.32 C 312.82 47.84 314.42 47.82 314.91 47.92" fill="none" stroke="#e6e6e6" stroke-linejoin="round" stroke-linecap="round" stroke-miterlimit="10" transform="rotate(10,318,54.5)" pointer-events="all"/><path d="M 254 59 Q 285 40 312.27 46.31" fill="none" stroke="none" pointer-events="stroke"/><path d="M 254 59 M 254 59 C 277.39 47.18 291.89 42.75 312.27 46.31 M 254 59 C 272.93 45.2 292.82 42.55 312.27 46.31" fill="none" stroke="#e6e6e6" stroke-width="0.5" stroke-linejoin="round" stroke-linecap="round" stroke-miterlimit="10" pointer-events="stroke"/><path d="M 318.97 92.36 Q 255 150 67.23 97.6" fill="none" stroke="none" pointer-events="stroke"/><path d="M 318.97 92.36 M 318.97 92.36 C 279.04 132.31 195.03 130.89 67.23 97.6 M 318.97 92.36 C 272.2 133.51 189.22 136.29 67.23 97.6" fill="none" stroke="#e6e6e6" stroke-linejoin="round" stroke-linecap="round" stroke-miterlimit="10" pointer-events="stroke"/><path d="M 69.47 57.7 Q 155 0 238.45 62.49" fill="none" stroke="none" pointer-events="stroke"/><path d="M 69.47 57.7 M 69.47 57.7 C 129.21 21.44 182.24 16.9 238.45 62.49 M 69.47 57.7 C 129.18 16.62 186.9 18.7 238.45 62.49" fill="none" stroke="#e6e6e6" stroke-width="0.5" stroke-linejoin="round" stroke-linecap="round" stroke-miterlimit="10" stroke-dasharray="1.5 1.5" pointer-events="stroke"/><ellipse cx="335.35" cy="80.89" rx="20" ry="20" fill="none" stroke="none" transform="rotate(10,335.35,80.89)" pointer-events="all"/><path d="M 319.33 70.25 C 319.33 70.25 319.33 70.25 319.33 70.25 M 319.33 70.25 C 319.33 70.25 319.33 70.25 319.33 70.25 M 317.1 78.91 C 319.39 71.75 323.47 70.81 331.54 62.3 M 317.1 78.91 C 319.25 73.7 322.83 71.81 331.54 62.3 M 317.5 84.55 C 322.04 77.45 324.05 75.98 335.87 63.42 M 317.5 84.55 C 321.22 79.83 324.61 75.98 335.87 63.42 M 319.2 88.68 C 330.79 78.38 332.7 74.48 340.2 64.53 M 319.2 88.68 C 324 85.08 328.78 79.14 340.2 64.53 M 320.91 92.82 C 325.16 90.83 335.36 82.75 345.19 64.89 M 320.91 92.82 C 326.08 85.88 333.6 79.78 345.19 64.89 M 322.62 96.95 C 331.96 82.49 345.04 73.67 348.2 67.52 M 322.62 96.95 C 334.01 85.44 342.16 72.74 348.2 67.52 M 326.95 98.07 C 333.59 92.18 339.2 82.83 351.22 70.14 M 326.95 98.07 C 334.32 93.92 339.31 85.91 351.22 70.14 M 330.62 99.94 C 341.8 92.15 347.04 80.16 354.24 72.77 M 330.62 99.94 C 337.14 89.86 348.56 82.26 354.24 72.77 M 334.95 101.05 C 341.51 93.02 346.72 81.61 355.95 76.9 M 334.95 101.05 C 340.35 96.24 346.12 86.65 355.95 76.9 M 340.6 100.66 C 344.3 95.11 349.71 88.99 357 81.79 M 340.6 100.66 C 347.15 92.24 352.59 88.07 357 81.79" fill="none" stroke="#e6e6e6" stroke-width="0.5" stroke-linejoin="round" stroke-linecap="round" stroke-miterlimit="10" transform="rotate(10,335.35,80.89)" pointer-events="all"/><path d="M 319.25 70.34 C 321.4 66.3 324.72 61.57 328.89 60.45 C 333.07 59.32 340.49 61.89 344.28 63.59 C 348.08 65.28 349.62 66.93 351.68 70.6 C 353.73 74.28 357.65 80.93 356.62 85.63 C 355.59 90.32 349.4 96.42 345.49 98.77 C 341.59 101.12 337.29 100.37 333.18 99.72 C 329.06 99.08 323.63 97.71 320.8 94.89 C 317.98 92.08 313.04 88.1 316.22 82.85 C 319.4 77.59 333.65 63.86 339.91 63.39 C 346.16 62.91 353.62 79.75 353.74 79.99 M 322.53 67.32 C 325.59 64.73 330.93 62.59 334.76 62.16 C 338.59 61.73 342.01 62.53 345.51 64.72 C 349.01 66.91 354.03 71.82 355.75 75.31 C 357.47 78.79 357.91 81.81 355.85 85.63 C 353.79 89.45 347.19 96.09 343.39 98.24 C 339.59 100.39 336.53 99.56 333.05 98.55 C 329.57 97.54 325.11 95.2 322.51 92.18 C 319.92 89.15 317.73 84.15 317.49 80.42 C 317.25 76.69 320.82 71.69 321.08 69.79 C 321.33 67.89 319.3 69.23 319.03 69" fill="none" stroke="#e6e6e6" stroke-linejoin="round" stroke-linecap="round" stroke-miterlimit="10" transform="rotate(10,335.35,80.89)" pointer-events="all"/></g></svg>